<mxfile host="app.diagrams.net" agent="Mozilla/5.0 (Windows NT 10.0; Win64; x64) AppleWebKit/537.36 (KHTML, like Gecko) Chrome/131.0.0.0 Safari/537.36 Edg/131.0.0.0" version="24.8.3">
  <diagram name="Page-1" id="RYFWpmxZSfJzTZo42I3J">
    <mxGraphModel dx="1682" dy="1017" grid="0" gridSize="10" guides="1" tooltips="1" connect="1" arrows="1" fold="1" page="0" pageScale="1" pageWidth="850" pageHeight="1100" math="0" shadow="0">
      <root>
        <mxCell id="0" />
        <mxCell id="1" parent="0" />
        <mxCell id="t_WifHm0q7iNFwu42sEW-14" value="" style="edgeStyle=none;curved=1;rounded=0;orthogonalLoop=1;jettySize=auto;html=1;fontSize=12;startSize=8;endSize=8;" edge="1" parent="1" source="t_WifHm0q7iNFwu42sEW-1" target="t_WifHm0q7iNFwu42sEW-13">
          <mxGeometry relative="1" as="geometry" />
        </mxCell>
        <mxCell id="t_WifHm0q7iNFwu42sEW-1" value="USER TABLE" style="rounded=0;whiteSpace=wrap;html=1;" vertex="1" parent="1">
          <mxGeometry x="-62" y="22" width="120" height="60" as="geometry" />
        </mxCell>
        <mxCell id="t_WifHm0q7iNFwu42sEW-17" value="" style="edgeStyle=none;curved=1;rounded=0;orthogonalLoop=1;jettySize=auto;html=1;fontSize=12;startSize=8;endSize=8;" edge="1" parent="1" source="t_WifHm0q7iNFwu42sEW-4" target="t_WifHm0q7iNFwu42sEW-16">
          <mxGeometry relative="1" as="geometry" />
        </mxCell>
        <mxCell id="t_WifHm0q7iNFwu42sEW-4" value="question table" style="rounded=0;whiteSpace=wrap;html=1;" vertex="1" parent="1">
          <mxGeometry x="417" y="12" width="120" height="60" as="geometry" />
        </mxCell>
        <mxCell id="t_WifHm0q7iNFwu42sEW-6" value="" style="endArrow=none;html=1;rounded=0;fontSize=12;startSize=8;endSize=8;curved=1;" edge="1" parent="1">
          <mxGeometry width="50" height="50" relative="1" as="geometry">
            <mxPoint x="-73" y="147" as="sourcePoint" />
            <mxPoint x="-42" y="84" as="targetPoint" />
          </mxGeometry>
        </mxCell>
        <mxCell id="t_WifHm0q7iNFwu42sEW-7" value="" style="endArrow=none;html=1;rounded=0;fontSize=12;startSize=8;endSize=8;curved=1;entryX=0.5;entryY=1;entryDx=0;entryDy=0;" edge="1" parent="1">
          <mxGeometry width="50" height="50" relative="1" as="geometry">
            <mxPoint x="60" y="157" as="sourcePoint" />
            <mxPoint x="29" y="82" as="targetPoint" />
          </mxGeometry>
        </mxCell>
        <mxCell id="t_WifHm0q7iNFwu42sEW-8" value="" style="endArrow=none;html=1;rounded=0;fontSize=12;startSize=8;endSize=8;curved=1;" edge="1" parent="1">
          <mxGeometry width="50" height="50" relative="1" as="geometry">
            <mxPoint x="-30" y="169" as="sourcePoint" />
            <mxPoint x="-15" y="82" as="targetPoint" />
          </mxGeometry>
        </mxCell>
        <mxCell id="t_WifHm0q7iNFwu42sEW-9" value="" style="endArrow=none;html=1;rounded=0;fontSize=12;startSize=8;endSize=8;curved=1;" edge="1" parent="1">
          <mxGeometry width="50" height="50" relative="1" as="geometry">
            <mxPoint y="22" as="sourcePoint" />
            <mxPoint x="-28" y="-45" as="targetPoint" />
          </mxGeometry>
        </mxCell>
        <mxCell id="t_WifHm0q7iNFwu42sEW-10" value="" style="endArrow=none;html=1;rounded=0;fontSize=12;startSize=8;endSize=8;curved=1;" edge="1" parent="1">
          <mxGeometry width="50" height="50" relative="1" as="geometry">
            <mxPoint x="-147" y="37" as="sourcePoint" />
            <mxPoint x="-62" y="32" as="targetPoint" />
          </mxGeometry>
        </mxCell>
        <mxCell id="t_WifHm0q7iNFwu42sEW-11" value="" style="endArrow=none;html=1;rounded=0;fontSize=12;startSize=8;endSize=8;curved=1;" edge="1" parent="1">
          <mxGeometry width="50" height="50" relative="1" as="geometry">
            <mxPoint x="-149" y="72" as="sourcePoint" />
            <mxPoint x="-64" y="67" as="targetPoint" />
          </mxGeometry>
        </mxCell>
        <mxCell id="t_WifHm0q7iNFwu42sEW-12" value="" style="endArrow=none;html=1;rounded=0;fontSize=12;startSize=8;endSize=8;curved=1;" edge="1" parent="1">
          <mxGeometry width="50" height="50" relative="1" as="geometry">
            <mxPoint x="23" y="22" as="sourcePoint" />
            <mxPoint x="39" y="-44" as="targetPoint" />
          </mxGeometry>
        </mxCell>
        <mxCell id="t_WifHm0q7iNFwu42sEW-15" value="" style="edgeStyle=none;curved=1;rounded=0;orthogonalLoop=1;jettySize=auto;html=1;fontSize=12;startSize=8;endSize=8;" edge="1" parent="1" source="t_WifHm0q7iNFwu42sEW-13" target="t_WifHm0q7iNFwu42sEW-4">
          <mxGeometry relative="1" as="geometry" />
        </mxCell>
        <mxCell id="t_WifHm0q7iNFwu42sEW-13" value="login" style="rhombus;whiteSpace=wrap;html=1;rounded=0;" vertex="1" parent="1">
          <mxGeometry x="198" y="12" width="80" height="80" as="geometry" />
        </mxCell>
        <mxCell id="t_WifHm0q7iNFwu42sEW-19" value="" style="edgeStyle=none;curved=1;rounded=0;orthogonalLoop=1;jettySize=auto;html=1;fontSize=12;startSize=8;endSize=8;" edge="1" parent="1" source="t_WifHm0q7iNFwu42sEW-16" target="t_WifHm0q7iNFwu42sEW-18">
          <mxGeometry relative="1" as="geometry" />
        </mxCell>
        <mxCell id="t_WifHm0q7iNFwu42sEW-16" value="Quiz_attempt_ table" style="rounded=0;whiteSpace=wrap;html=1;" vertex="1" parent="1">
          <mxGeometry x="417" y="192" width="120" height="60" as="geometry" />
        </mxCell>
        <mxCell id="t_WifHm0q7iNFwu42sEW-18" value="Quiz_result table" style="rounded=0;whiteSpace=wrap;html=1;" vertex="1" parent="1">
          <mxGeometry x="417" y="372" width="120" height="60" as="geometry" />
        </mxCell>
        <mxCell id="t_WifHm0q7iNFwu42sEW-20" value="" style="endArrow=none;html=1;rounded=0;fontSize=12;startSize=8;endSize=8;curved=1;" edge="1" parent="1">
          <mxGeometry width="50" height="50" relative="1" as="geometry">
            <mxPoint x="525" y="12" as="sourcePoint" />
            <mxPoint x="616" y="-42" as="targetPoint" />
          </mxGeometry>
        </mxCell>
        <mxCell id="t_WifHm0q7iNFwu42sEW-21" value="" style="endArrow=none;html=1;rounded=0;fontSize=12;startSize=8;endSize=8;curved=1;exitX=0;exitY=0;exitDx=0;exitDy=0;" edge="1" parent="1">
          <mxGeometry width="50" height="50" relative="1" as="geometry">
            <mxPoint x="438" y="10" as="sourcePoint" />
            <mxPoint x="400" y="-33" as="targetPoint" />
          </mxGeometry>
        </mxCell>
        <mxCell id="t_WifHm0q7iNFwu42sEW-22" value="" style="endArrow=none;html=1;rounded=0;fontSize=12;startSize=8;endSize=8;curved=1;" edge="1" parent="1">
          <mxGeometry width="50" height="50" relative="1" as="geometry">
            <mxPoint x="484" y="12" as="sourcePoint" />
            <mxPoint x="528" y="-75" as="targetPoint" />
          </mxGeometry>
        </mxCell>
        <mxCell id="t_WifHm0q7iNFwu42sEW-23" value="" style="endArrow=none;html=1;rounded=0;fontSize=12;startSize=8;endSize=8;curved=1;exitX=0.363;exitY=0.029;exitDx=0;exitDy=0;exitPerimeter=0;" edge="1" parent="1" source="t_WifHm0q7iNFwu42sEW-54">
          <mxGeometry width="50" height="50" relative="1" as="geometry">
            <mxPoint x="556" y="117" as="sourcePoint" />
            <mxPoint x="516" y="72" as="targetPoint" />
          </mxGeometry>
        </mxCell>
        <mxCell id="t_WifHm0q7iNFwu42sEW-24" value="" style="endArrow=none;html=1;rounded=0;fontSize=12;startSize=8;endSize=8;curved=1;exitX=0;exitY=0;exitDx=0;exitDy=0;" edge="1" parent="1">
          <mxGeometry width="50" height="50" relative="1" as="geometry">
            <mxPoint x="575" y="90" as="sourcePoint" />
            <mxPoint x="537" y="47" as="targetPoint" />
          </mxGeometry>
        </mxCell>
        <mxCell id="t_WifHm0q7iNFwu42sEW-25" value="" style="endArrow=none;html=1;rounded=0;fontSize=12;startSize=8;endSize=8;curved=1;" edge="1" parent="1">
          <mxGeometry width="50" height="50" relative="1" as="geometry">
            <mxPoint x="370" y="112" as="sourcePoint" />
            <mxPoint x="441" y="75" as="targetPoint" />
          </mxGeometry>
        </mxCell>
        <mxCell id="t_WifHm0q7iNFwu42sEW-26" value="" style="endArrow=none;html=1;rounded=0;fontSize=12;startSize=8;endSize=8;curved=1;" edge="1" parent="1">
          <mxGeometry width="50" height="50" relative="1" as="geometry">
            <mxPoint x="400" y="149" as="sourcePoint" />
            <mxPoint x="462" y="77" as="targetPoint" />
            <Array as="points">
              <mxPoint x="432" y="110" />
            </Array>
          </mxGeometry>
        </mxCell>
        <mxCell id="t_WifHm0q7iNFwu42sEW-27" value="" style="endArrow=none;html=1;rounded=0;fontSize=12;startSize=8;endSize=8;curved=1;" edge="1" parent="1">
          <mxGeometry width="50" height="50" relative="1" as="geometry">
            <mxPoint x="648" y="49" as="sourcePoint" />
            <mxPoint x="537" y="22" as="targetPoint" />
          </mxGeometry>
        </mxCell>
        <mxCell id="t_WifHm0q7iNFwu42sEW-28" value="" style="endArrow=none;html=1;rounded=0;fontSize=12;startSize=8;endSize=8;curved=1;exitX=0;exitY=0;exitDx=0;exitDy=0;" edge="1" parent="1">
          <mxGeometry width="50" height="50" relative="1" as="geometry">
            <mxPoint x="463" y="12" as="sourcePoint" />
            <mxPoint x="444" y="-69" as="targetPoint" />
          </mxGeometry>
        </mxCell>
        <mxCell id="t_WifHm0q7iNFwu42sEW-29" value="" style="endArrow=none;html=1;rounded=0;fontSize=12;startSize=8;endSize=8;curved=1;" edge="1" parent="1">
          <mxGeometry width="50" height="50" relative="1" as="geometry">
            <mxPoint x="293" y="321" as="sourcePoint" />
            <mxPoint x="417" y="205" as="targetPoint" />
          </mxGeometry>
        </mxCell>
        <mxCell id="t_WifHm0q7iNFwu42sEW-30" value="" style="endArrow=none;html=1;rounded=0;fontSize=12;startSize=8;endSize=8;curved=1;" edge="1" parent="1">
          <mxGeometry width="50" height="50" relative="1" as="geometry">
            <mxPoint x="414" y="212" as="sourcePoint" />
            <mxPoint x="285" y="241" as="targetPoint" />
          </mxGeometry>
        </mxCell>
        <mxCell id="t_WifHm0q7iNFwu42sEW-31" value="" style="endArrow=none;html=1;rounded=0;fontSize=12;startSize=8;endSize=8;curved=1;" edge="1" parent="1">
          <mxGeometry width="50" height="50" relative="1" as="geometry">
            <mxPoint x="537" y="200" as="sourcePoint" />
            <mxPoint x="667" y="198" as="targetPoint" />
          </mxGeometry>
        </mxCell>
        <mxCell id="t_WifHm0q7iNFwu42sEW-32" value="" style="endArrow=none;html=1;rounded=0;fontSize=12;startSize=8;endSize=8;curved=1;exitX=0.675;exitY=1.01;exitDx=0;exitDy=0;exitPerimeter=0;" edge="1" parent="1" source="t_WifHm0q7iNFwu42sEW-16">
          <mxGeometry width="50" height="50" relative="1" as="geometry">
            <mxPoint x="515" y="252" as="sourcePoint" />
            <mxPoint x="558" y="312" as="targetPoint" />
          </mxGeometry>
        </mxCell>
        <mxCell id="t_WifHm0q7iNFwu42sEW-33" value="" style="endArrow=none;html=1;rounded=0;fontSize=12;startSize=8;endSize=8;curved=1;entryX=0;entryY=1;entryDx=0;entryDy=0;" edge="1" parent="1" target="t_WifHm0q7iNFwu42sEW-16">
          <mxGeometry width="50" height="50" relative="1" as="geometry">
            <mxPoint x="351" y="323" as="sourcePoint" />
            <mxPoint x="377" y="309" as="targetPoint" />
          </mxGeometry>
        </mxCell>
        <mxCell id="t_WifHm0q7iNFwu42sEW-34" value="" style="endArrow=none;html=1;rounded=0;fontSize=12;startSize=8;endSize=8;curved=1;" edge="1" parent="1">
          <mxGeometry width="50" height="50" relative="1" as="geometry">
            <mxPoint x="539" y="222" as="sourcePoint" />
            <mxPoint x="720" y="271" as="targetPoint" />
          </mxGeometry>
        </mxCell>
        <mxCell id="t_WifHm0q7iNFwu42sEW-35" value="" style="endArrow=none;html=1;rounded=0;fontSize=12;startSize=8;endSize=8;curved=1;exitX=1;exitY=1;exitDx=0;exitDy=0;" edge="1" parent="1">
          <mxGeometry width="50" height="50" relative="1" as="geometry">
            <mxPoint x="519" y="252" as="sourcePoint" />
            <mxPoint x="668" y="335" as="targetPoint" />
          </mxGeometry>
        </mxCell>
        <mxCell id="t_WifHm0q7iNFwu42sEW-36" value="" style="endArrow=none;html=1;rounded=0;fontSize=12;startSize=8;endSize=8;curved=1;" edge="1" parent="1">
          <mxGeometry width="50" height="50" relative="1" as="geometry">
            <mxPoint x="408" y="496" as="sourcePoint" />
            <mxPoint x="436" y="432" as="targetPoint" />
          </mxGeometry>
        </mxCell>
        <mxCell id="t_WifHm0q7iNFwu42sEW-37" value="" style="endArrow=none;html=1;rounded=0;fontSize=12;startSize=8;endSize=8;curved=1;" edge="1" parent="1">
          <mxGeometry width="50" height="50" relative="1" as="geometry">
            <mxPoint x="437" y="565" as="sourcePoint" />
            <mxPoint x="453" y="433" as="targetPoint" />
          </mxGeometry>
        </mxCell>
        <mxCell id="t_WifHm0q7iNFwu42sEW-38" value="" style="endArrow=none;html=1;rounded=0;fontSize=12;startSize=8;endSize=8;curved=1;" edge="1" parent="1">
          <mxGeometry width="50" height="50" relative="1" as="geometry">
            <mxPoint x="535" y="513" as="sourcePoint" />
            <mxPoint x="521" y="434" as="targetPoint" />
          </mxGeometry>
        </mxCell>
        <mxCell id="t_WifHm0q7iNFwu42sEW-39" value="" style="endArrow=none;html=1;rounded=0;fontSize=12;startSize=8;endSize=8;curved=1;" edge="1" parent="1">
          <mxGeometry width="50" height="50" relative="1" as="geometry">
            <mxPoint x="629" y="496" as="sourcePoint" />
            <mxPoint x="537" y="412" as="targetPoint" />
          </mxGeometry>
        </mxCell>
        <mxCell id="t_WifHm0q7iNFwu42sEW-40" value="" style="endArrow=none;html=1;rounded=0;fontSize=12;startSize=8;endSize=8;curved=1;" edge="1" parent="1">
          <mxGeometry width="50" height="50" relative="1" as="geometry">
            <mxPoint x="356" y="461" as="sourcePoint" />
            <mxPoint x="417" y="402" as="targetPoint" />
          </mxGeometry>
        </mxCell>
        <mxCell id="t_WifHm0q7iNFwu42sEW-41" value="" style="ellipse;whiteSpace=wrap;html=1;" vertex="1" parent="1">
          <mxGeometry x="-132" y="-83" width="120" height="48" as="geometry" />
        </mxCell>
        <mxCell id="t_WifHm0q7iNFwu42sEW-42" value="username" style="ellipse;whiteSpace=wrap;html=1;" vertex="1" parent="1">
          <mxGeometry x="11" y="-92" width="120" height="48" as="geometry" />
        </mxCell>
        <mxCell id="t_WifHm0q7iNFwu42sEW-43" value="email" style="ellipse;whiteSpace=wrap;html=1;" vertex="1" parent="1">
          <mxGeometry x="-262" y="7" width="120" height="48" as="geometry" />
        </mxCell>
        <mxCell id="t_WifHm0q7iNFwu42sEW-44" value="password" style="ellipse;whiteSpace=wrap;html=1;" vertex="1" parent="1">
          <mxGeometry x="-259" y="62" width="120" height="48" as="geometry" />
        </mxCell>
        <mxCell id="t_WifHm0q7iNFwu42sEW-45" value="role" style="ellipse;whiteSpace=wrap;html=1;" vertex="1" parent="1">
          <mxGeometry x="-182" y="134" width="120" height="48" as="geometry" />
        </mxCell>
        <mxCell id="t_WifHm0q7iNFwu42sEW-46" value="created_at" style="ellipse;whiteSpace=wrap;html=1;" vertex="1" parent="1">
          <mxGeometry x="-76" y="168" width="120" height="48" as="geometry" />
        </mxCell>
        <mxCell id="t_WifHm0q7iNFwu42sEW-47" value="last_login" style="ellipse;whiteSpace=wrap;html=1;" vertex="1" parent="1">
          <mxGeometry x="52" y="144" width="120" height="48" as="geometry" />
        </mxCell>
        <mxCell id="t_WifHm0q7iNFwu42sEW-48" value="question_id" style="ellipse;whiteSpace=wrap;html=1;" vertex="1" parent="1">
          <mxGeometry x="292" y="-67" width="120" height="48" as="geometry" />
        </mxCell>
        <mxCell id="t_WifHm0q7iNFwu42sEW-49" value="question_text" style="ellipse;whiteSpace=wrap;html=1;" vertex="1" parent="1">
          <mxGeometry x="382" y="-117" width="120" height="48" as="geometry" />
        </mxCell>
        <mxCell id="t_WifHm0q7iNFwu42sEW-50" value="option1" style="ellipse;whiteSpace=wrap;html=1;" vertex="1" parent="1">
          <mxGeometry x="516" y="-111" width="120" height="48" as="geometry" />
        </mxCell>
        <mxCell id="t_WifHm0q7iNFwu42sEW-51" value="option2" style="ellipse;whiteSpace=wrap;html=1;" vertex="1" parent="1">
          <mxGeometry x="619" y="-63" width="120" height="48" as="geometry" />
        </mxCell>
        <mxCell id="t_WifHm0q7iNFwu42sEW-52" value="option3" style="ellipse;whiteSpace=wrap;html=1;" vertex="1" parent="1">
          <mxGeometry x="648" y="28" width="120" height="48" as="geometry" />
        </mxCell>
        <mxCell id="t_WifHm0q7iNFwu42sEW-53" value="option4" style="ellipse;whiteSpace=wrap;html=1;" vertex="1" parent="1">
          <mxGeometry x="574" y="76" width="120" height="48" as="geometry" />
        </mxCell>
        <mxCell id="t_WifHm0q7iNFwu42sEW-54" value="correct_option" style="ellipse;whiteSpace=wrap;html=1;" vertex="1" parent="1">
          <mxGeometry x="516" y="124" width="120" height="48" as="geometry" />
        </mxCell>
        <mxCell id="t_WifHm0q7iNFwu42sEW-55" value="difficulty" style="ellipse;whiteSpace=wrap;html=1;" vertex="1" parent="1">
          <mxGeometry x="254" y="88" width="120" height="48" as="geometry" />
        </mxCell>
        <mxCell id="t_WifHm0q7iNFwu42sEW-56" value="category" style="ellipse;whiteSpace=wrap;html=1;" vertex="1" parent="1">
          <mxGeometry x="292" y="138" width="120" height="48" as="geometry" />
        </mxCell>
        <mxCell id="t_WifHm0q7iNFwu42sEW-57" value="attempt_id" style="ellipse;whiteSpace=wrap;html=1;" vertex="1" parent="1">
          <mxGeometry x="666" y="172" width="120" height="48" as="geometry" />
        </mxCell>
        <mxCell id="t_WifHm0q7iNFwu42sEW-58" value="user_id" style="ellipse;whiteSpace=wrap;html=1;" vertex="1" parent="1">
          <mxGeometry x="709" y="245" width="120" height="48" as="geometry" />
        </mxCell>
        <mxCell id="t_WifHm0q7iNFwu42sEW-59" value="quiz_id" style="ellipse;whiteSpace=wrap;html=1;" vertex="1" parent="1">
          <mxGeometry x="652" y="318" width="120" height="48" as="geometry" />
        </mxCell>
        <mxCell id="t_WifHm0q7iNFwu42sEW-60" value="start_time" style="ellipse;whiteSpace=wrap;html=1;" vertex="1" parent="1">
          <mxGeometry x="320" y="318" width="120" height="48" as="geometry" />
        </mxCell>
        <mxCell id="t_WifHm0q7iNFwu42sEW-61" value="end_time" style="ellipse;whiteSpace=wrap;html=1;" vertex="1" parent="1">
          <mxGeometry x="187" y="305" width="120" height="48" as="geometry" />
        </mxCell>
        <mxCell id="t_WifHm0q7iNFwu42sEW-62" value="score" style="ellipse;whiteSpace=wrap;html=1;" vertex="1" parent="1">
          <mxGeometry x="496" y="305" width="120" height="48" as="geometry" />
        </mxCell>
        <mxCell id="t_WifHm0q7iNFwu42sEW-63" value="completed" style="ellipse;whiteSpace=wrap;html=1;" vertex="1" parent="1">
          <mxGeometry x="172" y="225" width="120" height="48" as="geometry" />
        </mxCell>
        <mxCell id="t_WifHm0q7iNFwu42sEW-64" value="result_id" style="ellipse;whiteSpace=wrap;html=1;" vertex="1" parent="1">
          <mxGeometry x="254" y="445" width="120" height="48" as="geometry" />
        </mxCell>
        <mxCell id="t_WifHm0q7iNFwu42sEW-65" value="is_correct" style="ellipse;whiteSpace=wrap;html=1;" vertex="1" parent="1">
          <mxGeometry x="598" y="491" width="120" height="48" as="geometry" />
        </mxCell>
        <mxCell id="t_WifHm0q7iNFwu42sEW-66" value="question_id" style="ellipse;whiteSpace=wrap;html=1;" vertex="1" parent="1">
          <mxGeometry x="478" y="516" width="120" height="48" as="geometry" />
        </mxCell>
        <mxCell id="t_WifHm0q7iNFwu42sEW-67" value="attempt_id" style="ellipse;whiteSpace=wrap;html=1;" vertex="1" parent="1">
          <mxGeometry x="307" y="493" width="120" height="48" as="geometry" />
        </mxCell>
        <mxCell id="t_WifHm0q7iNFwu42sEW-68" value="selected_option" style="ellipse;whiteSpace=wrap;html=1;" vertex="1" parent="1">
          <mxGeometry x="374" y="559" width="120" height="48" as="geometry" />
        </mxCell>
        <mxCell id="t_WifHm0q7iNFwu42sEW-69" value="user_id" style="text;strokeColor=none;fillColor=none;html=1;align=center;verticalAlign=middle;whiteSpace=wrap;rounded=0;fontSize=16;" vertex="1" parent="1">
          <mxGeometry x="-107" y="-71" width="60" height="30" as="geometry" />
        </mxCell>
      </root>
    </mxGraphModel>
  </diagram>
</mxfile>
